#N canvas 996 115 864 641 10;
#X declare -path Fraise;
#X declare -path moonlib;
#X obj 21 38 pied/pied 0 41424;
#X obj 44 315 bng 15 50 10 0 empty empty empty 17 7 0 10 -262144 -1
-1;
#X obj 44 267 tgl 15 0 empty empty empty 17 7 0 10 -262144 -1 -1 0
1;
#X obj 44 289 metro 50, f 15;
#X obj 44 393 f 1000;
#X floatatom 77 367 8 0 0 0 - - -;
#X floatatom 131 268 5 0 0 1 ms - -;
#X obj 77 341 * 100;
#X floatatom 77 312 5 0 0 0 - - -;
#X obj 200 324 hsl 128 15 10 4000 1 0 empty empty empty -2 -8 0 10
-262144 -1 -1 0 1;
#X msg 44 488 c 10 i \$1 c \$2;
#X obj 89 415 clip 0 3;
#X obj 89 394 hradio 15 1 0 4 empty empty empty 0 -8 0 10 -262144 -1
-1 3;
#X obj 21 7 declare -path Fraise;
#X obj 157 8 declare -path moonlib;
#X obj 44 214 del;
#X msg 44 133 1;
#X msg 77 133 2;
#X msg 109 133 3;
#X msg 140 133 4;
#X obj 44 169 * 1000;
#X obj 44 190 t f b;
#X msg 44 235 0;
#X msg 71 235 1;
#X floatatom 131 202 5 0 0 1 Hz - -;
#X msg 131 222 1000 \$1;
#X obj 131 243 /;
#X msg 131 176 20;
#X msg 162 175 40;
#X obj 44 440 pack f 3;
#X obj 248 217 tgl 15 0 empty empty empty 17 7 0 10 -262144 -1 -1 0
1;
#X obj 244 142 metro 1000;
#X obj 258 107 tgl 15 0 empty empty empty 17 7 0 10 -262144 -1 -1 0
1;
#X msg 98 177 10;
#X msg 296 104 200;
#X msg 325 102 1000;
#X obj 136 369 / 16;
#X floatatom 197 350 5 0 0 1 microsecondes - -;
#X obj 211 281 hsl 128 15 100 30000 1 0 empty empty empty -2 -8 0 10
-262144 -1 -1 0 1;
#X obj 152 420 t b f, f 12;
#X obj 152 462 list prepend;
#X text 428 168 channel(1-8);
#X text 429 184 pulse_width (6-200 us);
#X text 429 200 burst_freq (1-400 Hz);
#X text 429 216 burst_duration (? 0.1-2 s);
#X obj 183 39 fruit/fruit 1 mesm1 10 midiEMSfw;
#X obj 388 39 fruit/fruit 1 mesm2 11 midiEMSfw;
#X obj 44 511 fruit/send2 mesm1;
#X msg 477 410 0 \, 1 \, 2 \, 3;
#X obj 594 456 fruit/receive mesm1;
#X floatatom 389 404 5 0 255 0 - - -;
#X msg 475 352 50;
#X msg 382 352 0;
#X msg 418 352 10;
#X msg 445 353 20;
#N canvas 1 83 550 432 widthTable 0;
#X obj 166 40 table \$0-widthTable 128;
#X msg 85 95 128;
#X obj 85 137 until;
#X obj 85 158 i;
#X obj 115 158 + 1;
#X msg 124 136 0, f 2;
#X obj 85 179 t f f, f 22;
#X obj 85 278 tabwrite \$0-widthTable;
#X obj 85 202 / 128;
#X obj 85 116 t f b f, f 13;
#X obj 327 190 tabread \$0-widthTable;
#X floatatom 327 211 5 0 0 0 - - -;
#X floatatom 327 157 5 0 127 0 - - -;
#X obj 293 335 s \$0-widthTable;
#X msg 293 297 write widthTable.txt;
#X obj 85 253 i;
#X obj 85 228 maxlib/scale 0 1 50 1600 1;
#X obj 389 241 / 16;
#X floatatom 389 262 5 0 0 0 - - -;
#X connect 1 0 9 0;
#X connect 2 0 3 0;
#X connect 3 0 4 0;
#X connect 3 0 6 0;
#X connect 4 0 3 1;
#X connect 5 0 3 1;
#X connect 6 0 8 0;
#X connect 6 1 7 1;
#X connect 8 0 16 0;
#X connect 9 0 2 0;
#X connect 9 1 5 0;
#X connect 9 2 8 1;
#X connect 10 0 11 0;
#X connect 11 0 17 0;
#X connect 12 0 10 0;
#X connect 14 0 13 0;
#X connect 15 0 7 0;
#X connect 16 0 15 0;
#X connect 17 0 18 0;
#X restore 653 58 pd widthTable;
#X msg 231 189 0;
#X msg 283 167 1;
#X msg 325 135 120;
#X obj 231 168 del 50;
#X msg 364 127 300;
#N canvas 1 82 550 432 freqTable 0;
#X msg 85 95 128;
#X obj 85 137 until;
#X obj 85 158 i;
#X obj 115 158 + 1;
#X msg 124 136 0, f 2;
#X obj 85 179 t f f, f 22;
#X obj 85 116 t f b f, f 13;
#X floatatom 327 211 7 0 0 0 - - -;
#X floatatom 327 157 5 0 127 0 - - -;
#X obj 86 283 i;
#X obj 166 40 table \$0-freqTable 128;
#X obj 86 308 tabwrite \$0-freqTable;
#X obj 327 190 tabread \$0-freqTable;
#X msg 293 297 write freqTable.txt;
#X obj 293 335 s \$0-freqTable;
#X msg 85 200 1e+06 \$1;
#X obj 85 221 /;
#X connect 0 0 6 0;
#X connect 1 0 2 0;
#X connect 2 0 3 0;
#X connect 2 0 5 0;
#X connect 3 0 2 1;
#X connect 4 0 2 1;
#X connect 5 0 15 0;
#X connect 5 1 11 1;
#X connect 6 0 1 0;
#X connect 6 1 4 0;
#X connect 8 0 12 0;
#X connect 9 0 11 0;
#X connect 12 0 7 0;
#X connect 13 0 14 0;
#X connect 15 0 16 0;
#X connect 16 0 9 0;
#X restore 652 77 pd freqTable;
#X msg 510 351 127;
#X obj 389 437 t b f, f 12;
#X msg 389 458 0 \, 1 \, 2 \, 3;
#X obj 389 479 list append;
#X msg 222 497 0 \, 1 \, 2 \, 3;
#X msg 389 525 c 20 c \$1 c 127 c \$2;
#X obj 87 574 fruit/send2 mesm2;
#X obj 469 296 metro 1000;
#X obj 465 263 tgl 15 0 empty empty empty 17 7 0 10 -262144 -1 -1 0
1;
#X obj 152 441 f;
#X obj 242 403 hradio 30 1 0 4 empty empty empty 0 -8 0 10 -262144
-1 -1 0;
#X obj 242 438 + 0;
#N canvas 492 490 925 474 MIDI_tests 0;
#X obj 207 117 hsl 128 15 0 127 0 0 empty empty masterWidth -2 -8 0
10 -262144 -1 -1 0 1;
#X msg 592 178 0 \, 1 \, 2 \, 3;
#X floatatom 504 172 5 0 255 0 - - -;
#X msg 590 120 50;
#X msg 497 120 0;
#X msg 533 120 10;
#X msg 560 121 20;
#X msg 625 119 127;
#X obj 504 205 t b f, f 12;
#X obj 504 247 list append;
#X obj 584 64 metro 1000;
#X obj 580 31 tgl 15 0 empty empty empty 17 7 0 10 -262144 -1 -1 0
1;
#X obj 504 296 noteout 9;
#X obj 504 271 unpack f f;
#X obj 204 141 ctlout 20 9;
#X obj 74 290 t b f, f 12;
#X obj 74 353 unpack f f;
#X obj 74 377 ctlout 20 9;
#X obj 77 245 hsl 128 15 0 127 0 0 empty empty freq -2 -8 0 10 -262144
-1 -1 10100 1;
#X obj 271 290 t b f, f 12;
#X obj 271 381 unpack f f;
#X obj 271 405 ctlout 20 9;
#X obj 274 244 hsl 128 15 0 127 0 0 empty empty width -2 -8 0 10 -262144
-1 -1 7100 1;
#X floatatom 74 267 5 0 0 0 - - -;
#X floatatom 167 139 5 0 0 0 - - -;
#X floatatom 271 265 5 0 0 0 - - -;
#X obj 271 335 + 10;
#X obj 372 386 print;
#X obj 271 360 list prepend;
#X obj 74 332 list prepend;
#X obj 690 90 hradio 25 1 0 8 empty empty empty 0 -8 0 10 -262144 -1
-1 7;
#X obj 690 120 + 1;
#X obj 690 141 pack f 127;
#X msg 504 226 1 \, 2 \, 3 \, 4 \, 5 \, 6 \, 7 \, 8;
#X msg 271 311 1 \, 2 \, 3 \, 4 \, 5 \, 6 \, 7 \, 8;
#X msg 74 311 1 \, 2 \, 3 \, 4 \, 5 \, 6 \, 7 \, 8;
#X obj 696 53 bng 15 250 50 0 empty empty empty 17 7 0 10 -262144 -1
-1;
#X obj 776 139 hsl 128 15 0 127 0 0 empty empty width -2 -8 0 10 -262144
-1 -1 12700 1;
#X connect 0 0 14 0;
#X connect 0 0 24 0;
#X connect 2 0 8 0;
#X connect 3 0 2 0;
#X connect 4 0 2 0;
#X connect 5 0 2 0;
#X connect 6 0 2 0;
#X connect 7 0 2 0;
#X connect 8 0 33 0;
#X connect 8 1 9 1;
#X connect 9 0 13 0;
#X connect 10 0 30 0;
#X connect 11 0 10 0;
#X connect 13 0 12 0;
#X connect 13 1 12 1;
#X connect 15 0 35 0;
#X connect 15 1 29 1;
#X connect 16 0 17 0;
#X connect 16 1 17 1;
#X connect 18 0 23 0;
#X connect 19 0 34 0;
#X connect 19 1 28 1;
#X connect 20 0 21 0;
#X connect 20 1 21 1;
#X connect 22 0 25 0;
#X connect 23 0 15 0;
#X connect 25 0 19 0;
#X connect 26 0 28 0;
#X connect 28 0 20 0;
#X connect 29 0 16 0;
#X connect 30 0 31 0;
#X connect 31 0 32 0;
#X connect 32 0 13 0;
#X connect 33 0 9 0;
#X connect 34 0 26 0;
#X connect 35 0 29 0;
#X connect 37 0 32 1;
#X restore 619 362 pd MIDI_tests;
#X obj 594 497 print mesm1;
#X obj 731 457 fruit/receive mesm2;
#X obj 731 498 print mesm2;
#X msg 78 534 c 100 c 1;
#X msg 133 596 c 100 c 5;
#X msg 144 535 c 101;
#X connect 1 0 4 0;
#X connect 2 0 3 0;
#X connect 3 0 1 0;
#X connect 4 0 39 0;
#X connect 5 0 4 1;
#X connect 5 0 36 0;
#X connect 6 0 3 1;
#X connect 7 0 5 0;
#X connect 8 0 7 0;
#X connect 9 0 5 0;
#X connect 10 0 47 0;
#X connect 11 0 29 1;
#X connect 12 0 11 0;
#X connect 15 0 22 0;
#X connect 16 0 20 0;
#X connect 17 0 20 0;
#X connect 18 0 20 0;
#X connect 19 0 20 0;
#X connect 20 0 21 0;
#X connect 21 0 15 0;
#X connect 21 1 23 0;
#X connect 22 0 2 0;
#X connect 23 0 2 0;
#X connect 24 0 25 0;
#X connect 25 0 26 0;
#X connect 26 0 6 0;
#X connect 27 0 24 0;
#X connect 28 0 24 0;
#X connect 29 0 10 0;
#X connect 30 0 2 0;
#X connect 31 0 57 0;
#X connect 31 0 59 0;
#X connect 32 0 31 0;
#X connect 33 0 24 0;
#X connect 34 0 31 1;
#X connect 35 0 31 1;
#X connect 36 0 37 0;
#X connect 38 0 5 0;
#X connect 39 0 71 0;
#X connect 39 1 40 1;
#X connect 40 0 10 0;
#X connect 49 0 75 0;
#X connect 50 0 63 0;
#X connect 51 0 50 0;
#X connect 52 0 50 0;
#X connect 53 0 50 0;
#X connect 54 0 50 0;
#X connect 56 0 30 0;
#X connect 57 0 30 0;
#X connect 58 0 31 1;
#X connect 59 0 56 0;
#X connect 60 0 31 1;
#X connect 62 0 50 0;
#X connect 63 0 64 0;
#X connect 63 1 65 1;
#X connect 64 0 65 0;
#X connect 65 0 67 0;
#X connect 67 0 47 0;
#X connect 67 0 68 0;
#X connect 69 0 62 0;
#X connect 70 0 69 0;
#X connect 71 0 40 0;
#X connect 72 0 73 0;
#X connect 73 0 71 1;
#X connect 76 0 77 0;
#X connect 78 0 47 0;
#X connect 79 0 68 0;
#X connect 80 0 68 0;
#X connect 80 0 47 0;
